<svg fill="none" xmlns="http://www.w3.org/2000/svg" viewBox="0 0 224 202" width="224" height="202"><path d="m85.702 64.505 43.479-51.622a32.64 32.64 0 0 1 11.021-7.996 32.592 32.592 0 0 1 13.316-2.8h.975V0H103.32v1.998h2.15c6.172 0 9.072 5.61 5.309 10.627L50.624 87.533V16.138a14.322 14.322 0 0 1 4.346-9.87 14.265 14.265 0 0 1 9.99-4.024h2.811V0H0v2.244h2.878a14.254 14.254 0 0 1 9.965 4.06 14.31 14.31 0 0 1 4.304 9.878v123.883a14.333 14.333 0 0 1-4.283 9.944 14.28 14.28 0 0 1-10.008 4.095H0v2.244h11.043l74.66-91.843Z" fill="#FFBC42"/><path d="M223.742 191.9c-27.529-1.403-47.936-15.711-73.18-48.963l-56.852-70.7-20.16 24.577 28.482 34.98H44.8l-4.334 5.274h65.856l16.228 19.953c34.631 43.307 67.2 54.619 101.45 37.034l-.258-2.155Z" fill="#FFD890"/></svg>