<svg width="256" height="256" viewBox="0 0 256 256" fill="none" xmlns="http://www.w3.org/2000/svg">
<path fill="#3c6d84" d="M101.702 91.5053L145.181 39.8831C148.253 36.4719 152.008 33.7475 156.202 31.8874C160.395 30.0273 164.933 29.0732 169.518 29.0873H170.493V27H119.32V28.9976H121.47C127.642 28.9976 130.542 34.6087 126.779 39.625L66.624 114.533V43.1376C66.7321 39.4054 68.2919 35.8635 70.9703 33.2678C73.6488 30.6721 77.2338 29.2282 80.96 29.2444H83.7712V27H16V29.2444H18.8784C22.6014 29.2433 26.1775 30.7002 28.8433 33.3042C31.5092 35.9083 33.0537 39.4532 33.1472 43.1824V167.065C33.0739 170.813 31.5359 174.384 28.8637 177.009C26.1915 179.634 22.5982 181.104 18.856 181.104H16V183.348H27.0432L101.702 91.5053Z" />
<path fill="#92bfce" d="M239.742 218.9C212.213 217.497 191.806 203.189 166.562 169.937L109.71 99.2374L89.5504 123.814L118.032 158.794H60.8L56.4656 164.068H122.322L138.55 184.021C173.181 227.328 205.75 238.64 240 221.055L239.742 218.9Z" />
</svg>