<svg xmlns="http://www.w3.org/2000/svg" viewBox="0 0 462.98 417.12" ><path d="M177.14 133.19 267 26.49A67.46 67.46 0 0 1 317.29 4.2h2V0H213.55v4.12H218c12.74 0 18.74 11.63 11 22L104.63 180.73V33.32a29.55 29.55 0 0 1 29.53-28.71h5.83l.08-4.61H0l.07 4.61h5.89a29.5 29.5 0 0 1 29.48 28.81v255.8a29.55 29.55 0 0 1-29.54 29H.07L0 322.83h22.82Z" fill="#ffbc42" /><path d="M462.45 396.14c-56.91-2.9-99.07-32.45-151.26-101.09l-117.5-146L152 199.8l58.88 72.34H92.63L83.69 283h136.07l33.53 41.2C324.88 413.65 392.26 437 463 400.75Z" fill="#ffd890" /></svg>