<svg fill="none" xmlns="http://www.w3.org/2000/svg" viewBox="0 0 152 40"><path d="M17.625 15.912C15.52 6.62 11.13 4.143 10 2.395 9.532 1.625 9.133.825 8.775 0c-.055.826-.165 1.349-.867 1.968C6.504 3.221.516 8.108.02 18.665-.448 28.52 7.26 34.59 8.28 35.21c.784.385 1.734.014 2.202-.344 3.716-2.547 8.795-9.346 7.143-18.954Z" fill="#13AA52"/><path d="M9.105 29.98c-.193 2.436-.33 3.853-.826 5.244 0 0 .317 2.326.55 4.776h.8c.192-1.734.481-3.455.88-5.148-1.032-.51-1.363-2.74-1.404-4.873Z" fill="#B8C4C2"/><path d="M10.51 34.852c-1.047-.482-1.35-2.767-1.405-4.886.262-3.497.33-7.007.234-10.517-.055-1.844.028-17.026-.454-19.256.33.757.702 1.486 1.129 2.188 1.115 1.748 5.52 4.226 7.625 13.517 1.638 9.608-3.413 16.394-7.13 18.954Z" fill="#12924F"/><path d="M149.119 31.494a2.28 2.28 0 0 1-2.285-2.285 2.28 2.28 0 0 1 2.285-2.285 2.283 2.283 0 0 1 2.285 2.257c.027 1.239-.95 2.285-2.189 2.313h-.096Zm0-4.364c-1.143-.014-2.079.922-2.092 2.065-.014 1.142.922 2.078 2.064 2.092 1.143.014 2.079-.922 2.093-2.065v-.014a2.036 2.036 0 0 0-2.01-2.078h-.055Zm.55 3.524-.591-1.267h-.468v1.267h-.344v-2.89h.853c.633 0 .895.274.895.811 0 .427-.193.689-.578.771l.605 1.308h-.372Zm-1.046-1.57h.496c.399 0 .564-.137.564-.509 0-.371-.151-.495-.605-.495h-.455v1.005ZM115.134 29.415c.619.495 1.858.702 2.946.702 1.404 0 2.794-.262 4.143-1.487 1.376-1.252 2.326-3.165 2.326-6.221 0-2.932-1.115-5.327-3.414-6.717-1.293-.812-2.973-1.129-4.886-1.129-.551 0-1.115.027-1.445.179a.737.737 0 0 0-.262.413c-.055.523-.055 4.5-.055 6.855 0 2.408 0 5.78.055 6.194.028.344.207.95.592 1.211Zm-5.864-16.173c.496 0 2.395.082 3.276.082 1.652 0 2.795-.082 5.878-.082 2.588 0 4.762.702 6.318 2.037 1.885 1.624 2.89 3.895 2.89 6.662 0 3.923-1.789 6.194-3.592 7.474-1.79 1.335-4.116 2.092-7.433 2.092-1.762 0-4.79-.055-7.323-.082h-.041c-.124-.234.22-1.143.426-1.157.689-.082.868-.11 1.184-.234.537-.22.661-.495.716-1.445.083-1.803.055-3.95.055-6.4 0-1.748.028-5.148-.027-6.222-.097-.895-.468-1.129-1.239-1.308a17.144 17.144 0 0 0-1.652-.261c-.055-.193.399-.977.564-1.156ZM134.928 14.728c-.111.028-.262.317-.262.468a301.337 301.337 0 0 0-.055 5.671.191.191 0 0 0 .151.152c.386.027 1.322.055 2.12.055 1.115 0 1.762-.152 2.12-.317.936-.468 1.376-1.487 1.376-2.588 0-2.532-1.761-3.482-4.377-3.482a4.619 4.619 0 0 0-1.073.041Zm6.675 11.618c0-2.56-1.885-4.006-5.326-4.006-.152 0-1.239-.028-1.501.027-.082.028-.179.083-.179.152 0 1.83-.027 4.763.055 5.933.055.495.413 1.197.854 1.39.468.261 1.528.316 2.271.316 2.023 0 3.826-1.128 3.826-3.813Zm-11.989-13.05c.262 0 1.047.083 3.042.083 1.886 0 3.414-.055 5.231-.055 2.257 0 5.382.812 5.382 4.185 0 1.651-1.17 3-2.712 3.633-.082.028-.082.083 0 .11 2.175.551 4.088 1.886 4.088 4.447 0 2.505-1.555 4.074-3.826 5.065-1.377.606-3.083.812-4.818.812-1.321 0-4.872-.138-6.841-.11-.206-.083.193-1.019.372-1.156a5.504 5.504 0 0 0 1.335-.207c.702-.179.785-.399.881-1.445.055-.909.055-4.13.055-6.428 0-3.139.028-5.258 0-6.304-.028-.813-.317-1.074-.881-1.225-.44-.083-1.17-.18-1.762-.262-.137-.151.303-1.032.454-1.142ZM24.15 31.494a1.094 1.094 0 0 1-.083-.592c0-.138.028-.276.083-.4.385-.055.757-.137 1.129-.234.523-.123.715-.413.743-1.073.082-1.57.096-4.515.055-6.58v-.055c0-.22 0-.523-.275-.743a5.83 5.83 0 0 0-1.556-.688c-.248-.07-.385-.207-.371-.358.013-.152.165-.33.481-.4.854-.082 3.084-.619 3.964-1.018a.568.568 0 0 1 .124.413c0 .096-.013.193-.027.29-.028.288-.055.618-.055.949a.22.22 0 0 0 .248.193.205.205 0 0 0 .123-.056c1.666-1.307 3.166-1.775 3.937-1.775 1.267 0 2.244.605 3 1.844.042.055.097.097.166.097a.196.196 0 0 0 .165-.083c1.528-1.17 3.056-1.858 4.075-1.858 2.408 0 3.84 1.803 3.84 4.817 0 .868-.014 1.969-.014 2.987 0 .895-.014 1.748-.014 2.327 0 .137.193.536.482.605.358.165.854.262 1.5.372h.028c.055.179-.055.84-.152.977-.165 0-.385-.014-.66-.027a35.93 35.93 0 0 0-1.982-.055c-1.597 0-2.437.027-3.235.082-.055-.193-.083-.84-.014-.977.33-.055.661-.124.978-.22.509-.165.66-.4.688-1.074.014-.482.11-4.707-.055-5.712-.152-1.046-.936-2.258-2.657-2.258-.633 0-1.665.262-2.643 1.005a.396.396 0 0 0-.096.248v.014c.11.537.11 1.17.11 2.133v1.693c0 1.17-.014 2.271 0 3.097 0 .565.344.702.62.812.15.028.275.055.385.083.234.055.468.11.826.165.055.248.041.496-.014.73a.509.509 0 0 1-.11.247 92.03 92.03 0 0 0-3.125-.055c-.399 0-1.046.014-1.624.028-.468.014-.908.027-1.156.027a1.075 1.075 0 0 1-.083-.509.78.78 0 0 1 .097-.468l.357-.069c.303-.055.579-.096.826-.165.44-.137.606-.372.634-.936.082-1.294.151-5.024-.028-5.96-.316-1.5-1.156-2.257-2.533-2.257-.798 0-1.817.385-2.642 1.004a.81.81 0 0 0-.248.606v1.542c0 1.872-.014 4.198.027 5.216.028.317.138.675.716.813.124.041.344.069.606.11.151.027.303.055.468.082.055.33.027.661-.083.978-.261 0-.564-.014-.936-.028a39.93 39.93 0 0 0-2.01-.055c-.922 0-1.555.028-2.078.055-.33.083-.633.097-.922.097ZM53.661 20.62a2.419 2.419 0 0 0-1.404.399c-1.018.619-1.541 1.858-1.541 3.689 0 3.413 1.706 5.794 4.157 5.794a2.576 2.576 0 0 0 1.789-.633c.757-.605 1.156-1.872 1.156-3.62 0-3.372-1.68-5.63-4.157-5.63Zm.468 11.135c-4.418 0-5.987-3.248-5.987-6.277 0-2.12.867-3.771 2.574-4.927a7.833 7.833 0 0 1 3.978-1.17c3.372 0 5.726 2.422 5.726 5.89 0 2.355-.936 4.227-2.726 5.383-.853.537-2.34 1.101-3.565 1.101ZM98.644 20.62a2.418 2.418 0 0 0-1.404.399c-1.018.619-1.542 1.858-1.542 3.689 0 3.413 1.707 5.794 4.157 5.794a2.635 2.635 0 0 0 1.804-.633c.757-.605 1.142-1.872 1.142-3.62 0-3.372-1.679-5.63-4.157-5.63Zm.468 11.135c-4.418 0-5.987-3.248-5.987-6.277 0-2.12.867-3.771 2.573-4.927a7.833 7.833 0 0 1 3.978-1.17c3.373 0 5.726 2.422 5.726 5.89 0 2.368-.936 4.227-2.725 5.383-.853.537-2.34 1.101-3.565 1.101ZM83.764 20.495c-1.362 0-2.243 1.074-2.243 2.74 0 1.665.757 3.647 2.89 3.647.372 0 1.033-.165 1.363-.523.496-.454.826-1.39.826-2.395 0-2.16-1.06-3.468-2.835-3.468ZM83.6 31.99c-.385 0-.757.096-1.1.275-1.075.688-1.584 1.377-1.584 2.175 0 .743.29 1.349.922 1.872.757.647 1.776.95 3.125.95 2.643 0 3.827-1.418 3.827-2.822 0-.977-.496-1.638-1.5-2.01-.785-.289-2.093-.44-3.69-.44Zm.18 6.745c-1.584 0-2.726-.33-3.703-1.088-.95-.73-1.377-1.817-1.377-2.574.014-.482.193-.95.523-1.307.275-.317.922-.909 2.395-1.914.041-.013.083-.069.083-.123a.132.132 0 0 0-.097-.124c-1.21-.468-1.582-1.24-1.693-1.652 0-.014 0-.042-.013-.069-.028-.165-.07-.317.151-.468.165-.124.44-.29.73-.454a9.693 9.693 0 0 0 1.183-.771c.07-.083.07-.207-.013-.275-.014-.014-.028-.028-.042-.028-1.803-.605-2.711-1.94-2.711-3.992a3.933 3.933 0 0 1 1.665-3.262c.73-.578 2.547-1.266 3.73-1.266h.07c1.21.027 1.899.289 2.849.633a4.38 4.38 0 0 0 1.679.262c1.005 0 1.445-.317 1.817-.689.055.165.096.344.096.523.028.427-.096.84-.33 1.198-.207.289-.689.495-1.129.495-.041 0-.096 0-.138-.013a3.768 3.768 0 0 1-.688-.11l-.11.04c-.041.056-.014.11.014.18.014.014.014.027.014.041.082.372.137.743.165 1.115 0 2.147-.84 3.07-1.762 3.758a5.912 5.912 0 0 1-3.028 1.17c-.028 0-.138.014-.358.027a7.556 7.556 0 0 1-.344.028h-.028c-.193.055-.716.303-.716.757 0 .385.234.853 1.35.936l.729.055c1.473.11 3.317.234 4.184.523a2.912 2.912 0 0 1 1.941 2.794c0 1.913-1.363 3.73-3.648 4.831a7.873 7.873 0 0 1-3.454.771M77.02 30.475c-.647-.083-1.115-.18-1.68-.44a.787.787 0 0 1-.206-.413c-.055-.909-.055-3.524-.055-5.231 0-1.39-.234-2.615-.826-3.496-.702-.991-1.707-1.57-3-1.57-1.143 0-2.67.785-3.937 1.859-.028.027-.22.22-.22-.07 0-.288.055-.866.068-1.238a.602.602 0 0 0-.192-.537c-.826.413-3.139.964-4.006 1.046-.62.124-.784.716-.11.936h.014a5.946 5.946 0 0 1 1.514.661c.261.207.234.496.234.73.028 1.94.028 4.941-.055 6.565-.028.633-.207.867-.675.991l.042-.013a9.476 9.476 0 0 1-1.088.206c-.151.152-.151.991 0 1.156.29 0 1.79-.082 3.029-.082 1.706 0 2.587.082 3.028.082.179-.206.234-.99.124-1.156a5.992 5.992 0 0 1-1.212-.179c-.468-.11-.592-.344-.62-.867-.054-1.363-.054-4.28-.054-6.25 0-.55.151-.811.316-.963.592-.523 1.556-.867 2.41-.867.825 0 1.376.262 1.789.606.481.413.784 1.005.84 1.638.11 1.101.082 3.317.082 5.23 0 1.046-.083 1.308-.468 1.432-.179.082-.647.179-1.211.234-.18.179-.124.99 0 1.156.757 0 1.651-.082 2.945-.082 1.624 0 2.643.082 3.056.082.179-.206.248-.963.124-1.156Z" fill="#fff"/></svg>