<svg fill="none" xmlns="http://www.w3.org/2000/svg" viewBox="0 0 80 40"><g clip-path="url(#a)" fill="#fff"><path d="M6.978 8.656h11.636c3.415.03 5.89 1.009 7.424 2.938 1.534 1.93 2.041 4.566 1.52 7.907a15.123 15.123 0 0 1-1.346 4.493 13.354 13.354 0 0 1-2.779 3.975c-1.447 1.498-2.996 2.449-4.646 2.852a21.5 21.5 0 0 1-5.123.605h-5.21l-1.65 8.21H.769l6.209-30.98Zm5.08 4.926L9.452 26.544c.174.028.348.043.521.043h.608c2.78.029 5.095-.245 6.947-.821 1.853-.605 3.097-2.708 3.734-6.308.521-3.024 0-4.767-1.563-5.228-1.534-.46-3.459-.677-5.774-.648-.348.029-.68.043-1 .043h-.91l.043-.043M34.434.407h5.992l-1.693 8.252h5.384c2.952.058 5.152.662 6.6 1.815 1.476 1.152 1.91 3.34 1.302 6.567l-2.91 14.387h-6.078l2.78-13.74c.288-1.44.202-2.462-.261-3.067s-1.462-.907-2.996-.907l-4.82-.043-3.56 17.757h-5.992L34.435.407ZM58.454 8.656H70.09c3.416.03 5.89 1.009 7.425 2.938 1.534 1.93 2.04 4.566 1.52 7.907a15.123 15.123 0 0 1-1.347 4.493 13.354 13.354 0 0 1-2.779 3.975c-1.447 1.498-2.995 2.449-4.645 2.852a21.5 21.5 0 0 1-5.124.605h-5.21l-1.65 8.21h-6.035l6.209-30.98Zm5.08 4.926-2.605 12.962c.173.028.347.043.52.043h.609c2.778.029 5.094-.245 6.947-.821 1.852-.605 3.097-2.708 3.734-6.308.52-3.024 0-4.767-1.564-5.228-1.534-.46-3.459-.677-5.774-.648-.347.029-.68.043-.999.043h-.912l.044-.043"/></g><defs><clipPath id="a"><path fill="#fff" transform="translate(.77 .385)" d="M0 0h78.462v39.231H0z"/></clipPath></defs></svg>