<svg fill="none" xmlns="http://www.w3.org/2000/svg" viewBox="0 0 72 64"><path d="M71.308 32.007c0-4.653-5.859-9.062-14.84-11.796 2.072-9.105 1.151-16.35-2.908-18.669-.935-.544-2.03-.801-3.224-.801v3.192c.662 0 1.195.129 1.641.372 1.958 1.117 2.807 5.369 2.145 10.838-.159 1.345-.418 2.763-.734 4.209-2.822-.688-5.902-1.217-9.14-1.56-1.944-2.65-3.959-5.054-5.988-7.159 4.692-4.338 9.097-6.714 12.09-6.714V.726c-3.958 0-9.14 2.806-14.379 7.674C30.731 3.56 25.551.784 21.591.784v3.192c2.98 0 7.4 2.362 12.092 6.672a67.697 67.697 0 0 0-5.945 7.143c-3.253.344-6.333.873-9.154 1.575a42.958 42.958 0 0 1-.749-4.152c-.676-5.468.159-9.72 2.102-10.851.431-.258.993-.373 1.655-.373V.798c-1.21 0-2.303.258-3.253.802-4.045 2.319-4.951 9.549-2.864 18.625C6.522 22.974.692 27.369.692 32.007c0 4.653 5.859 9.062 14.84 11.797-2.072 9.105-1.151 16.349 2.908 18.668.935.544 2.03.802 3.238.802 3.959 0 9.14-2.806 14.38-7.674 5.239 4.839 10.42 7.616 14.379 7.616 1.209 0 2.303-.257 3.253-.801 4.044-2.32 4.951-9.55 2.864-18.626 8.924-2.734 14.754-7.143 14.754-11.782Zm-18.74-9.549a64.245 64.245 0 0 1-1.944 5.655 67.689 67.689 0 0 0-1.886-3.436 77.35 77.35 0 0 0-2.072-3.35c2.044.3 4.016.673 5.901 1.131Zm-6.593 15.247a76.188 76.188 0 0 1-3.47 5.469A75.259 75.259 0 0 1 36 43.46c-2.173 0-4.347-.1-6.477-.272a78.899 78.899 0 0 1-3.483-5.44 74.425 74.425 0 0 1-2.994-5.698 74.505 74.505 0 0 1 2.98-5.712 76.19 76.19 0 0 1 3.468-5.469A75.3 75.3 0 0 1 36 20.583c2.173 0 4.347.1 6.477.272a78.896 78.896 0 0 1 3.483 5.44 74.408 74.408 0 0 1 2.994 5.698 80.001 80.001 0 0 1-2.98 5.712Zm4.649-1.861a61.122 61.122 0 0 1 1.986 5.698 64.905 64.905 0 0 1-5.93 1.145 78.967 78.967 0 0 0 2.073-3.393 81.256 81.256 0 0 0 1.871-3.45ZM36.029 51.119a59.124 59.124 0 0 1-4.002-4.581c1.296.057 2.62.1 3.959.1 1.353 0 2.691-.028 4.001-.1a55.972 55.972 0 0 1-3.958 4.581Zm-10.71-8.432a65.257 65.257 0 0 1-5.9-1.131 64.278 64.278 0 0 1 1.943-5.655c.59 1.145 1.209 2.29 1.885 3.436a94.679 94.679 0 0 0 2.073 3.35Zm10.638-29.792a59.143 59.143 0 0 1 4.001 4.581c-1.295-.057-2.62-.1-3.958-.1-1.353 0-2.692.029-4.001.1a55.969 55.969 0 0 1 3.958-4.58Zm-10.652 8.432a79.029 79.029 0 0 0-3.943 6.83 61.161 61.161 0 0 1-1.987-5.699 70.227 70.227 0 0 1 5.93-1.13ZM12.28 39.251c-5.095-2.162-8.391-4.996-8.391-7.244 0-2.247 3.296-5.096 8.391-7.244 1.238-.53 2.591-1.002 3.987-1.446.82 2.806 1.9 5.727 3.239 8.719-1.324 2.977-2.39 5.884-3.195 8.675a43.882 43.882 0 0 1-4.03-1.46Zm7.744 20.458c-1.957-1.117-2.807-5.369-2.145-10.837.159-1.346.418-2.763.734-4.21 2.822.688 5.902 1.218 9.14 1.561 1.944 2.649 3.959 5.054 5.988 7.158-4.692 4.338-9.097 6.714-12.09 6.714-.648-.014-1.195-.143-1.627-.386ZM54.165 48.8c.676 5.469-.158 9.72-2.102 10.852-.431.257-.993.372-1.655.372-2.98 0-7.398-2.362-12.09-6.672a67.697 67.697 0 0 0 5.944-7.143c3.253-.344 6.333-.873 9.154-1.575.331 1.446.59 2.835.749 4.166Zm5.541-9.549c-1.238.53-2.59 1.002-3.987 1.446-.82-2.806-1.9-5.726-3.238-8.719 1.324-2.977 2.39-5.883 3.195-8.675 1.425.444 2.778.93 4.045 1.46 5.095 2.162 8.391 4.996 8.391 7.244-.014 2.248-3.31 5.097-8.406 7.244Z" fill="#61DAFB"/><path d="M35.986 38.55c3.633 0 6.578-2.93 6.578-6.543s-2.946-6.542-6.578-6.542c-3.633 0-6.578 2.929-6.578 6.542 0 3.614 2.945 6.543 6.578 6.543Z" fill="#61DAFB"/></svg>